<?xml version="1.0" standalone="no"?>
<!DOCTYPE svg PUBLIC "-//W3C//DTD SVG 1.1//EN" "http://www.w3.org/Graphics/SVG/1.1/DTD/svg11.dtd" >
<svg xmlns="http://www.w3.org/2000/svg" xmlns:xlink="http://www.w3.org/1999/xlink" version="1.1">
<metadata></metadata>
<defs>
<font id="nesobriteexpanded_black" horiz-adv-x="1968" >
<font-face units-per-em="2048" ascent="1536" descent="-512" />
<missing-glyph horiz-adv-x="921" />
<glyph horiz-adv-x="0" />
<glyph unicode="&#xd;" horiz-adv-x="1372" />
<glyph unicode=" "  horiz-adv-x="921" />
<glyph unicode="&#x09;" horiz-adv-x="921" />
<glyph unicode="&#xa0;" horiz-adv-x="921" />
<glyph unicode="!" horiz-adv-x="389" d="M102 0v184h185v-184h-185zM102 430v1004h185v-1004h-185z" />
<glyph unicode="&#x22;" horiz-adv-x="638" d="M94 1126v369h185v-369h-185zM401 1126v369h185v-369h-185z" />
<glyph unicode="#" horiz-adv-x="845" d="M45 455v143h94l29 266h-82v144h98l45 426h146l-45 -426h243l45 426h146l-45 -426h82v-144h-99l-28 -266h86v-143h-101l-49 -455h-145l49 455h-244l-49 -455h-145l49 455h-80zM285 598h243l29 266h-244z" />
<glyph unicode="$" horiz-adv-x="2019" d="M96 393v103h185v-41q0 -41 61 -41h1335q61 0 62 41v143q0 47 -62 47h-1362q-213 0 -213 133v250q0 143 226 143h637v263h143v-263h584q225 0 225 -143v-102h-184v41q0 41 -62 41h-1323q-61 0 -61 -41v-115q0 -43 61 -43h1397q178 0 178 -139v-277q0 -143 -225 -143h-590 v-250h-143v250h-643q-225 0 -226 143z" />
<glyph unicode="%" horiz-adv-x="1814" d="M96 983v266q0 123 144 123h465q143 0 143 -123v-266q0 -123 -143 -123h-465q-143 0 -144 123zM102 0l1428 1372h172l-1430 -1372h-170zM219 1004q0 -41 55 -41h396q55 0 55 41v225q0 41 -55 41h-396q-55 0 -55 -41v-225zM967 123v266q0 123 143 123h465q143 0 143 -123 v-266q0 -123 -143 -123h-465q-143 0 -143 123zM1090 143q0 -41 55 -41h395q55 0 55 41v226q0 41 -55 41h-395q-55 0 -55 -41v-226z" />
<glyph unicode="&#x26;" horiz-adv-x="2191" d="M96 225v207q0 195 195 266l198 72l-206 121q-162 94 -162 246v92q0 205 205 205h915q205 0 205 -205v-111q0 -168 -215 -250l-346 -133l620 -360l260 190h310l-404 -286l475 -279h-372l-269 160l-139 -101q-84 -59 -221 -59h-844q-205 0 -205 225zM281 250q0 -86 81 -86 h748q102 0 145 31l86 61l-663 406l-324 -134q-74 -31 -73 -120v-158zM305 1151q0 -72 64 -111l327 -198l467 180q98 37 99 129v37q0 82 -82 82h-793q-82 0 -82 -82v-37z" />
<glyph unicode="'" horiz-adv-x="290" d="M94 1126v369h144v-369h-144z" />
<glyph unicode="(" horiz-adv-x="520" d="M102 459v332q0 436 164 704h152q-172 -256 -172 -704v-332q0 -451 172 -705h-152q-164 268 -164 705z" />
<glyph unicode=")" horiz-adv-x="520" d="M102 -246q172 254 172 705v332q0 449 -172 704h152q164 -268 164 -704v-332q0 -436 -164 -705h-152z" />
<glyph unicode="*" horiz-adv-x="833" d="M102 1174l222 65l-138 176l103 82l131 -190l127 188l110 -74l-137 -184l211 -61l-31 -132l-223 80l8 -227h-133l10 227l-215 -77z" />
<glyph unicode="+" horiz-adv-x="778" d="M102 659v144h215v215h144v-215h215v-144h-215v-215h-144v215h-215z" />
<glyph unicode="," horiz-adv-x="389" d="M66 -205l36 236v153h185v-143l-54 -246h-167z" />
<glyph unicode="-" horiz-adv-x="733" d="M59 461v143h615v-143h-615z" />
<glyph unicode="." horiz-adv-x="389" d="M102 0v184h185v-184h-185z" />
<glyph unicode="/" horiz-adv-x="690" d="M45 -213l457 1708h143l-457 -1708h-143z" />
<glyph unicode="0" horiz-adv-x="1648" d="M96 225v922q0 225 226 225h1005q225 0 225 -225v-922q0 -225 -225 -225h-1005q-225 0 -226 225zM322 307q0 -123 122 -123h760q123 0 123 123v758q0 123 -123 123h-760q-123 0 -122 -123v-758z" />
<glyph unicode="1" horiz-adv-x="622" d="M49 954l121 418h350v-1372h-225v1161l-55 -207h-191z" />
<glyph unicode="2" horiz-adv-x="1726" d="M68 0v137l1261 660q76 39 76 127v161q0 102 -82 103h-922q-82 0 -82 -103v-34h-225v96q0 225 205 225h1126q205 0 205 -225v-277q0 -143 -129 -211l-903 -475h1032v-184h-1562z" />
<glyph unicode="3" horiz-adv-x="1748" d="M94 1049v118q0 205 225 205h1119q205 0 204 -205v-280q0 -152 -106 -172q117 -35 117 -176v-334q0 -205 -205 -205h-1122q-225 0 -226 205v117h215v-35q0 -102 123 -103h887q102 0 102 103v231q0 102 -108 103h-481v184h481q98 0 98 102v178q0 102 -102 103h-887 q-123 0 -123 -103v-36h-211z" />
<glyph unicode="4" horiz-adv-x="1476" d="M51 262v174l1086 936h247v-926h62v-184h-62v-262h-225v262h-1108zM375 446h784v678z" />
<glyph unicode="5" horiz-adv-x="1667" d="M96 205v117h226v-56q0 -82 81 -82h861q82 0 82 82v297q0 88 -82 88h-1162v721h1463v-321h-213v137h-1024v-352h1058q184 0 185 -220v-411q0 -205 -205 -205h-1065q-205 0 -205 205z" />
<glyph unicode="6" horiz-adv-x="1648" d="M96 205v962q0 205 205 205h1047q205 0 204 -205v-116h-225v55q0 82 -82 82h-842q-82 0 -81 -82v-236l81 21h945q205 0 204 -205v-481q0 -205 -204 -205h-1047q-205 0 -205 205zM322 266q0 -82 81 -82h842q82 0 82 82v359q0 82 -82 82h-842l-81 -21v-420z" />
<glyph unicode="7" horiz-adv-x="1574" d="M70 1051v321h1437v-336l-1022 -1036h-295l1092 1100v88h-987v-137h-225z" />
<glyph unicode="8" horiz-adv-x="1710" d="M96 205v272q0 190 86 238q-76 45 -76 233v219q0 205 205 205h1088q205 0 205 -205v-219q0 -188 -76 -233q86 -47 86 -238v-272q0 -205 -205 -205h-1108q-205 0 -205 205zM322 266q0 -82 81 -82h904q82 0 82 82v262q0 92 -93 93h-882q-92 0 -92 -93v-262zM332 891 q0 -86 82 -86h882q82 0 82 86v215q0 82 -82 82h-882q-82 0 -82 -82v-215z" />
<glyph unicode="9" horiz-adv-x="1650" d="M96 205v117h226v-56q0 -82 81 -82h844q82 0 82 82v283l-82 -21h-946q-205 0 -205 205v434q0 205 205 205h1049q205 0 204 -205v-962q0 -205 -204 -205h-1049q-205 0 -205 205zM322 795q0 -82 81 -82h844l82 20v373q0 82 -82 82h-844q-82 0 -81 -82v-311z" />
<glyph unicode=":" horiz-adv-x="389" d="M102 0v184h185v-184h-185zM102 737v185h185v-185h-185z" />
<glyph unicode=";" horiz-adv-x="389" d="M66 -205l36 236v153h185v-143l-54 -246h-167zM102 737v185h185v-185h-185z" />
<glyph unicode="&#x3c;" horiz-adv-x="817" d="M102 668v135l613 317v-149l-471 -236l471 -237v-150z" />
<glyph unicode="=" horiz-adv-x="778" d="M102 496v143h574v-143h-574zM102 823v144h574v-144h-574z" />
<glyph unicode="&#x3e;" horiz-adv-x="817" d="M102 348v150l471 237l-471 236v149l613 -317v-135z" />
<glyph unicode="?" horiz-adv-x="1466" d="M76 1051v178q0 205 205 205h901q205 0 204 -205v-379q0 -188 -186 -188h-399q-74 0 -74 -76v-156h-184v227q0 168 149 168h432q78 0 78 78v285q0 82 -82 82h-778q-82 0 -82 -82v-137h-184zM543 0v184h184v-184h-184z" />
<glyph unicode="@" horiz-adv-x="2019" d="M96 205v1024q0 205 205 205h1417q205 0 205 -205v-770l-158 -33h-747q-184 0 -184 184v185q0 184 184 184h653l68 -21v230q0 82 -82 82h-1295q-82 0 -81 -82v-942q0 -82 81 -82h1530v-164h-1591q-205 0 -205 205zM1018 664q0 -74 74 -74h585l62 20v185l-62 20h-585 q-74 0 -74 -74v-77z" />
<glyph unicode="A" horiz-adv-x="2043" d="M45 0l868 1434h236l850 -1434h-256l-184 319h-1094l-189 -319h-231zM575 504h877l-432 747z" />
<glyph unicode="B" horiz-adv-x="1951" d="M102 0v1434h1528q225 0 225 -226v-272q0 -133 -120 -193q131 -45 131 -196v-322q0 -225 -226 -225h-1538zM328 184h1210q102 0 102 103v260q0 102 -102 102h-1210v-465zM328 834h1200q102 0 102 102v211q0 102 -102 102h-1200v-415z" />
<glyph unicode="C" horiz-adv-x="1906" d="M96 205v1024q0 205 205 205h1311q205 0 205 -205v-178h-205v96q0 102 -103 102h-1085q-102 0 -102 -102v-860q0 -102 102 -103h1085q102 0 103 103v96h205v-178q0 -205 -205 -205h-1311q-205 0 -205 205z" />
<glyph unicode="D" horiz-adv-x="1961" d="M102 0v1434h1436q328 0 328 -328v-778q0 -328 -328 -328h-1436zM328 184h1149q164 0 163 164v737q0 164 -163 164h-1149v-1065z" />
<glyph unicode="E" horiz-adv-x="1722" d="M102 0v1434h1532v-185h-1306v-385h1294v-184h-1294v-496h1310v-184h-1536z" />
<glyph unicode="F" horiz-adv-x="1560" d="M102 0v1434h1405v-185h-1179v-426h1161v-184h-1161v-639h-226z" />
<glyph unicode="G" horiz-adv-x="1910" d="M96 205v1024q0 205 205 205h1315q205 0 205 -205v-178h-226v96q0 102 -102 102h-1069q-102 0 -102 -102v-860q0 -102 102 -103h1110l61 21v403h-444v185h670v-760l-158 -33h-1362q-205 0 -205 205z" />
<glyph unicode="H" horiz-adv-x="1980" d="M102 0v1434h226v-570h1325v570h225v-1434h-225v680h-1325v-680h-226z" />
<glyph unicode="I" horiz-adv-x="430" d="M102 0v1434h226v-1434h-226z" />
<glyph unicode="J" horiz-adv-x="1759" d="M70 205v178h202v-96q0 -102 103 -103h960q102 0 103 103v1147h225v-1229q0 -205 -205 -205h-1184q-205 0 -204 205z" />
<glyph unicode="K" horiz-adv-x="2017" d="M102 0v1434h226v-557h1011l371 557h252l-422 -633l432 -801h-258l-379 692h-1007v-692h-226z" />
<glyph unicode="L" horiz-adv-x="1546" d="M102 0v1434h226v-1250h1175v-184h-1401z" />
<glyph unicode="M" horiz-adv-x="2637" d="M102 0v1434h365l860 -1264l864 1264h344v-1434h-225v1247l-840 -1247h-309l-833 1247v-1247h-226z" />
<glyph unicode="N" horiz-adv-x="1976" d="M102 0v1434h289l1258 -1188v1188h225v-1434h-309l-1258 1188v-1188h-205z" />
<glyph unicode="O" d="M96 205v1024q0 205 205 205h1366q205 0 205 -205v-1024q0 -205 -205 -205h-1366q-205 0 -205 205zM322 287q0 -102 102 -103h1120q102 0 103 103v860q0 102 -103 102h-1120q-102 0 -102 -102v-860z" />
<glyph unicode="P" horiz-adv-x="1904" d="M102 0v1434h1506q225 0 225 -226v-434q0 -225 -225 -225h-1280v-549h-226zM328 733h1177q102 0 103 103v311q0 102 -103 102h-1177v-516z" />
<glyph unicode="Q" d="M96 205v1024q0 205 205 205h1366q205 0 205 -205v-1024q0 -205 -205 -205h-315l106 -274h-205l-104 274h-848q-205 0 -205 205zM322 287q0 -102 102 -103h655l-39 103h203l39 -103h262q102 0 103 103v860q0 102 -103 102h-1120q-102 0 -102 -102v-860z" />
<glyph unicode="R" horiz-adv-x="1902" d="M102 0v1434h1497q225 0 226 -226v-334q0 -160 -201 -212l227 -662h-229l-217 649h-1077v-649h-226zM328 834h1169q102 0 102 102v211q0 102 -102 102h-1169v-415z" />
<glyph unicode="S" horiz-adv-x="1961" d="M88 205v178h225v-96q0 -102 103 -103h1128q102 0 103 103v270q0 94 -95 94h-1273q-184 0 -185 187v391q0 205 205 205h1362q205 0 205 -205v-178h-213v96q0 102 -103 102h-1128q-102 0 -103 -102v-227q0 -84 82 -84h1272q199 0 199 -195v-436q0 -205 -205 -205h-1374 q-205 0 -205 205z" />
<glyph unicode="T" horiz-adv-x="1832" d="M39 1249v185h1755v-185h-752v-1249h-225v1249h-778z" />
<glyph unicode="U" d="M102 205v1229h226v-1147q0 -102 102 -103h1118q102 0 103 103v1147h215v-1229q0 -205 -205 -205h-1354q-205 0 -205 205z" />
<glyph unicode="V" horiz-adv-x="2043" d="M45 1434h256l723 -1252l743 1252h232l-869 -1434h-235z" />
<glyph unicode="W" horiz-adv-x="3205" d="M45 1434h256l520 -1219l654 1219h251l660 -1219l518 1219h256l-625 -1434h-256l-680 1206l-671 -1206h-256z" />
<glyph unicode="X" horiz-adv-x="2263" d="M45 0l936 774l-780 660h340l602 -521l618 521h299l-778 -643l936 -791h-338l-760 653l-776 -653h-299z" />
<glyph unicode="Y" horiz-adv-x="2060" d="M45 1434h342l653 -572l658 572h317l-874 -781v-653h-226v653z" />
<glyph unicode="Z" horiz-adv-x="1851" d="M59 0v174l1330 1034h-1323v226h1720v-177l-1329 -1032h1337v-225h-1735z" />
<glyph unicode="[" horiz-adv-x="614" d="M102 -248v1743h410v-143h-266v-1456h266v-144h-410z" />
<glyph unicode="\" horiz-adv-x="690" d="M45 1495h143l457 -1708h-143z" />
<glyph unicode="]" horiz-adv-x="614" d="M102 -104h267v1456h-267v143h410v-1743h-410v144z" />
<glyph unicode="^" horiz-adv-x="776" d="M102 1014l220 420h135l217 -420h-150l-135 278l-137 -278h-150z" />
<glyph unicode="_" horiz-adv-x="1931" d="M0 -41h1933v-143h-1933v143z" />
<glyph unicode="`" horiz-adv-x="833" d="M82 1137v143l629 -104v-144z" />
<glyph unicode="a" horiz-adv-x="1447" d="M84 184v209q0 178 164 178h923v138q0 49 -61 49h-768q-61 0 -61 -49v-33h-185v69q0 176 185 177h890q184 0 185 -177v-712l-182 -33h-906q-184 0 -184 184zM268 225q0 -61 62 -61h782l59 12v232h-841q-61 0 -62 -66v-117z" />
<glyph unicode="b" horiz-adv-x="1454" d="M92 33v1462h184v-594l72 21h836q184 0 184 -185v-553q0 -184 -184 -184h-908zM276 176l62 -12h784q61 0 62 61v471q0 61 -62 62h-784l-62 -19v-563z" />
<glyph unicode="c" horiz-adv-x="1447" d="M92 164v594q0 164 164 164h944q164 0 164 -164v-82h-164v20q0 61 -61 62h-801q-61 0 -62 -62v-471q0 -61 62 -61h801q61 0 61 61v19h164v-80q0 -164 -164 -164h-944q-164 0 -164 164z" />
<glyph unicode="d" horiz-adv-x="1449" d="M86 164v594q0 164 164 164h852l72 -21v594h184v-1462l-184 -33h-924q-164 0 -164 164zM270 225q0 -61 62 -61h780l62 12v563l-62 19h-780q-61 0 -62 -62v-471z" />
<glyph unicode="e" horiz-adv-x="1404" d="M92 164v594q0 164 164 164h899q164 0 164 -164v-348h-1043v-185q0 -61 62 -61h739q61 0 62 61v21h184v-82q0 -164 -164 -164h-903q-164 0 -164 164zM276 573h859v123q0 61 -62 62h-735q-61 0 -62 -62v-123z" />
<glyph unicode="f" horiz-adv-x="921" d="M31 758v164h61v389q0 184 184 184h615v-164h-543q-72 0 -72 -71v-338h596v-164h-596v-758h-184v758h-61z" />
<glyph unicode="g" horiz-adv-x="1449" d="M86 164v594q0 164 164 164h924l184 -33v-1217q0 -184 -184 -184h-979v164h907q72 0 72 72v296l-72 -20h-852q-164 0 -164 164zM270 225q0 -61 62 -61h780l62 18v563l-62 13h-780q-61 0 -62 -62v-471z" />
<glyph unicode="h" horiz-adv-x="1452" d="M92 0v1495h184v-594l72 21h852q164 0 164 -164v-758h-184v696q0 61 -62 62h-780l-62 -19v-739h-184z" />
<glyph unicode="i" horiz-adv-x="368" d="M92 0v922h184v-922h-184zM92 1249v185h184v-185h-184z" />
<glyph unicode="j" horiz-adv-x="434" d="M-334 -348h420q72 0 72 72v1198h184v-1250q0 -184 -184 -184h-492v164zM158 1249v185h184v-185h-184z" />
<glyph unicode="k" horiz-adv-x="1441" d="M92 0v1495h184v-848h666l211 275h213l-279 -353l308 -569h-209l-250 483h-660v-483h-184z" />
<glyph unicode="l" horiz-adv-x="368" d="M92 0v1495h184v-1495h-184z" />
<glyph unicode="m" horiz-adv-x="2293" d="M92 0v868l178 54h770q102 0 146 -31l96 31h760q164 0 164 -164v-758h-185v696q0 61 -61 62h-674l-61 -19v-739h-164v696q0 61 -62 62h-661l-62 -19v-739h-184z" />
<glyph unicode="n" horiz-adv-x="1452" d="M92 0v868l178 54h930q164 0 164 -164v-758h-184v696q0 61 -62 62h-780l-62 -19v-739h-184z" />
<glyph unicode="o" horiz-adv-x="1452" d="M86 164v594q0 164 164 164h952q164 0 164 -164v-594q0 -164 -164 -164h-952q-164 0 -164 164zM270 225q0 -61 62 -61h788q61 0 62 61v471q0 61 -62 62h-788q-61 0 -62 -62v-471z" />
<glyph unicode="p" horiz-adv-x="1452" d="M92 -512v1401l184 33h926q164 0 164 -164v-594q0 -164 -164 -164h-854l-72 20v-532h-184zM276 182l62 -18h782q61 0 62 61v471q0 61 -62 62h-782l-62 -13v-563z" />
<glyph unicode="q" horiz-adv-x="1449" d="M86 164v594q0 164 164 164h924l184 -33v-1401h-184v532l-72 -20h-852q-164 0 -164 164zM270 225q0 -61 62 -61h780l62 18v563l-62 13h-780q-61 0 -62 -62v-471z" />
<glyph unicode="r" horiz-adv-x="1232" d="M92 0v868l178 54h748q164 0 164 -164v-74h-164v12q0 61 -62 62h-618l-62 -19v-739h-184z" />
<glyph unicode="s" horiz-adv-x="1374" d="M76 164v82h184v-21q0 -61 62 -61h731q61 0 61 61v107q0 63 -61 63h-826q-145 0 -145 152v211q0 164 164 164h882q164 0 164 -164v-82h-184v20q0 61 -61 62h-719q-61 0 -62 -62v-80q0 -57 58 -57h831q143 0 143 -158v-237q0 -164 -163 -164h-895q-164 0 -164 164z" />
<glyph unicode="t" horiz-adv-x="921" d="M31 758v164h61v307h184v-307h596v-164h-596v-522q0 -72 72 -72h543v-164h-615q-184 0 -184 184v574h-61z" />
<glyph unicode="u" horiz-adv-x="1413" d="M86 164v758h184v-697q0 -61 62 -61h753l62 18v740h174v-869l-178 -53h-893q-164 0 -164 164z" />
<glyph unicode="v" horiz-adv-x="1400" d="M37 922h235l437 -758l444 758h211l-580 -922h-174z" />
<glyph unicode="w" horiz-adv-x="2232" d="M41 922h235l312 -699l442 699h195l432 -699l323 699h211l-458 -922h-174l-443 733l-452 -733h-175z" />
<glyph unicode="x" horiz-adv-x="1568" d="M37 0l616 506l-497 416h284l351 -301l356 301h242l-488 -398l629 -524h-289l-475 408l-487 -408h-242z" />
<glyph unicode="y" horiz-adv-x="1589" d="M8 -348h352q109 0 160 76l207 311l-627 883h236l518 -758l485 758h211l-858 -1297q-92 -137 -301 -137h-383v164z" />
<glyph unicode="z" horiz-adv-x="1269" d="M57 0v133l824 606h-811v183h1136v-136l-823 -602h829v-184h-1155z" />
<glyph unicode="{" horiz-adv-x="851" d="M102 555v139h72q51 0 51 62v555q0 184 185 184h340v-143h-299q-82 0 -82 -82v-535q0 -86 -76 -110q76 -27 76 -111v-534q0 -82 82 -82h299v-144h-340q-184 0 -185 185v555q0 61 -51 61h-72z" />
<glyph unicode="|" horiz-adv-x="348" d="M102 -246v1741h144v-1741h-144z" />
<glyph unicode="}" horiz-adv-x="851" d="M102 -102h299q82 0 82 82v534q0 84 76 111q-76 25 -76 110v535q0 82 -82 82h-299v143h340q184 0 185 -184v-555q0 -61 51 -62h72v-139h-72q-51 0 -51 -61v-555q0 -184 -185 -185h-340v144z" />
<glyph unicode="~" horiz-adv-x="774" d="M102 631v139q51 37 134 37q39 0 77.5 -9.5t76.5 -21.5t78 -21.5t83 -9.5q35 0 66.5 8.5t54.5 26.5v-137q-57 -39 -135 -39q-31 0 -72 9.5t-83 21.5t-83 21.5t-72 9.5q-72 0 -125 -35z" />
<glyph unicode="&#xa1;" horiz-adv-x="389" d="M102 -328v1004h185v-1004h-185zM102 922v184h185v-184h-185z" />
<glyph unicode="&#xa2;" horiz-adv-x="1992" d="M102 455v512q0 205 205 204h619v263h143v-263h617q205 0 204 -184v-61h-174v20q0 61 -82 62h-1265q-82 0 -82 -82v-430q0 -82 82 -82h1265q82 0 82 61v21h174v-62q0 -184 -204 -184h-617v-250h-143v250h-619q-205 0 -205 205z" />
<glyph unicode="&#xa3;" horiz-adv-x="1712" d="M59 0v164h62v373h-62v143h62v487q0 205 205 205h1071q205 0 205 -205v-116h-185v75q0 82 -82 82h-948q-82 0 -82 -82v-446h1157v-143h-1157v-373h1127v158h184v-322h-1557z" />
<glyph unicode="&#xa5;" horiz-adv-x="1466" d="M51 1372h238l448 -487l457 487h217l-592 -631v-106h559v-143h-559v-123h559v-144h-559v-225h-184v225h-545v144h545v123h-545v143h545v106z" />
<glyph unicode="&#xa6;" horiz-adv-x="348" d="M102 -246v641h144v-641h-144zM102 903v592h144v-592h-144z" />
<glyph unicode="&#xa7;" horiz-adv-x="1376" d="M76 164v82h174v-23q0 -59 61 -59h744q61 0 61 61v156q0 55 -57 55h-834q-143 0 -143 146v233q0 117 94 131q-86 14 -86 117v207q0 164 164 164h885q164 0 164 -164v-82h-175v20q0 61 -61 62h-731q-61 0 -62 -62v-114q0 -63 62 -64h829q143 0 144 -158v-221 q0 -123 -84 -135q76 -27 75 -145v-207q0 -164 -163 -164h-897q-164 0 -164 164zM266 664q0 -63 62 -64h745q51 0 51 62v149q0 55 -61 55h-733q-63 0 -64 -61v-141z" />
<glyph unicode="&#xa8;" horiz-adv-x="798" d="M102 1065v184h144v-184h-144zM553 1065v184h143v-184h-143z" />
<glyph unicode="&#xa9;" horiz-adv-x="1390" d="M96 307v819q0 307 307 308h584q307 0 307 -308v-819q0 -307 -307 -307h-584q-307 0 -307 307zM199 328q0 -225 225 -226h543q225 0 225 226v778q0 225 -225 225h-543q-225 0 -225 -225v-778zM403 379v676q0 123 123 123h338q123 0 123 -123v-123h-102v102q0 41 -41 41 h-297q-41 0 -41 -41v-635q0 -41 41 -41h297q41 0 41 41v103h102v-123q0 -123 -123 -123h-338q-123 0 -123 123z" />
<glyph unicode="&#xaa;" horiz-adv-x="573" d="M102 657v232q0 96 82 96h144v102q0 20 -21 21h-41q-20 0 -20 -21v-45h-131v86q0 102 82 103h192q82 0 82 -103v-540l-133 -33h-154q-82 0 -82 102zM246 698q0 -20 20 -20h15l47 10v184h-62q-20 0 -20 -14v-160z" />
<glyph unicode="&#xab;" horiz-adv-x="849" d="M59 559l314 250h151l-321 -250l321 -250h-151zM326 559l313 250h152l-322 -250l322 -250h-152z" />
<glyph unicode="&#xad;" horiz-adv-x="733" d="M59 461v143h615v-143h-615z" />
<glyph unicode="&#xae;" horiz-adv-x="1189" d="M96 594v655q0 184 226 185h546q225 0 226 -185v-655q0 -184 -226 -184h-546q-225 0 -226 184zM199 594q0 -82 82 -82h628q82 0 82 82v655q0 82 -82 82h-628q-82 0 -82 -82v-655zM371 602v631h350q117 0 117 -131v-78q0 -131 -117 -131l141 -291h-96l-139 291h-162v-291 h-94zM465 985h256q25 0 24 27v100q0 29 -24 29h-256v-156z" />
<glyph unicode="&#xb0;" horiz-adv-x="770" d="M102 1106v164q0 164 164 164h238q164 0 164 -164v-164q0 -143 -164 -143h-238q-164 0 -164 143zM205 1126q0 -61 61 -61h238q61 0 61 61v144q0 61 -61 61h-238q-61 0 -61 -61v-144z" />
<glyph unicode="&#xb1;" horiz-adv-x="778" d="M102 167v144h574v-144h-574zM102 659v144h215v215h144v-215h215v-144h-215v-215h-144v215h-215z" />
<glyph unicode="&#xb2;" horiz-adv-x="534" d="M68 942v55l200 312q27 43 27 78v88q0 20 -21 20h-41q-20 0 -20 -20v-52h-137v93q0 102 102 102h158q102 0 102 -102v-134q0 -57 -30 -102l-144 -215h164v-123h-360z" />
<glyph unicode="&#xb3;" horiz-adv-x="559" d="M94 1045v73h144v-32q0 -20 20 -21h41q20 0 20 21v112q0 31 -36 31h-62v123h60q29 0 28 28v95q0 20 -20 20h-41q-20 0 -21 -20v-64h-133v105q0 102 103 102h153q102 0 103 -102v-134q0 -66 -64 -90q74 -25 74 -94v-153q0 -102 -103 -103h-163q-102 0 -103 103z" />
<glyph unicode="&#xb4;" horiz-adv-x="835" d="M123 1032v144l631 104v-143z" />
<glyph unicode="&#xb5;" horiz-adv-x="1413" d="M86 -512v1434h184v-758h805l62 20v738h184v-846l-158 -76h-893v-512h-184z" />
<glyph unicode="&#xb6;" horiz-adv-x="935" d="M90 856v332q0 246 246 246h498v-1557h-144v1413h-151v-1413h-144v733h-59q-246 0 -246 246z" />
<glyph unicode="&#xb7;" horiz-adv-x="348" d="M102 639v184h144v-184h-144z" />
<glyph unicode="&#xb8;" horiz-adv-x="307" d="M66 -303l36 262h144l-53 -262h-127z" />
<glyph unicode="&#xb9;" horiz-adv-x="454" d="M49 1348l72 270h231v-676h-143v522l-25 -116h-135z" />
<glyph unicode="&#xba;" horiz-adv-x="540" d="M86 657v471q0 102 102 103h164q102 0 103 -103v-471q0 -102 -103 -102h-164q-102 0 -102 102zM229 698q0 -20 21 -20h41q20 0 20 20v389q0 20 -20 21h-41q-20 0 -21 -21v-389z" />
<glyph unicode="&#xbb;" horiz-adv-x="849" d="M59 309l322 250l-322 250h152l313 -250l-313 -250h-152zM326 309l321 250l-321 250h151l314 -250l-314 -250h-151z" />
<glyph unicode="&#xbc;" horiz-adv-x="1171" d="M96 1104l72 270h231v-676h-143v522l-25 -116h-135zM186 -41l672 1454h155l-673 -1454h-154zM672 137v52l217 487h125v-416h62v-123h-62v-137h-143v137h-199zM803 260h68v137z" />
<glyph unicode="&#xbd;" horiz-adv-x="1155" d="M96 1104l72 270h231v-676h-143v522l-25 -116h-135zM186 -41l672 1454h155l-673 -1454h-154zM689 0v55l200 312q27 43 27 78v88q0 20 -21 20h-41q-20 0 -20 -20v-52h-137v93q0 102 102 102h158q102 0 102 -102v-134q0 -57 -30 -102l-144 -215h164v-123h-360z" />
<glyph unicode="&#xbe;" horiz-adv-x="1314" d="M135 801v73h144v-32q0 -20 20 -21h41q20 0 20 21v112q0 31 -36 31h-62v123h60q29 0 28 28v95q0 20 -20 20h-41q-20 0 -21 -20v-64h-133v105q0 102 103 102h153q102 0 103 -102v-134q0 -66 -64 -90q74 -25 74 -94v-153q0 -102 -103 -103h-163q-102 0 -103 103zM311 -41 l672 1454h155l-673 -1454h-154zM796 137v52l217 487h125v-416h62v-123h-62v-137h-143v137h-199zM927 260h68v137z" />
<glyph unicode="&#xbf;" horiz-adv-x="1458" d="M76 -123v379q0 188 186 188h400q74 0 73 76v156h185v-227q0 -168 -150 -168h-432q-78 0 -78 -78v-285q0 -82 82 -82h778q82 0 82 82v137h184v-178q0 -205 -204 -205h-901q-205 0 -205 205zM735 922v184h185v-184h-185z" />
<glyph unicode="&#xc0;" horiz-adv-x="2043" d="M45 0l868 1434h236l850 -1434h-256l-184 319h-1094l-189 -319h-231zM575 504h877l-432 747zM686 1649v143l629 -104v-144z" />
<glyph unicode="&#xc1;" horiz-adv-x="2043" d="M45 0l868 1434h236l850 -1434h-256l-184 319h-1094l-189 -319h-231zM575 504h877l-432 747zM727 1544v144l631 104v-143z" />
<glyph unicode="&#xc2;" horiz-adv-x="2043" d="M45 0l868 1434h236l850 -1434h-256l-184 319h-1094l-189 -319h-231zM575 504h877l-432 747zM628 1516l322 307h135l328 -307h-185l-204 198l-197 -198h-199z" />
<glyph unicode="&#xc3;" horiz-adv-x="2043" d="M45 0l868 1434h236l850 -1434h-256l-184 319h-1094l-189 -319h-231zM575 504h877l-432 747zM729 1587v154q29 16 62 27.5t76 11.5q49 0 85.5 -11.5t70.5 -25.5t72 -25.5t93 -11.5q41 0 72 14.5t53 36.5v-151q-31 -16 -64.5 -28.5t-72.5 -12.5q-45 0 -85 11t-79 25.5 t-77 25.5t-79 11q-39 0 -68.5 -14t-58.5 -37z" />
<glyph unicode="&#xc4;" horiz-adv-x="2043" d="M45 0l868 1434h236l850 -1434h-256l-184 319h-1094l-189 -319h-231zM575 504h877l-432 747zM725 1577v184h144v-184h-144zM1176 1577v184h143v-184h-143z" />
<glyph unicode="&#xc5;" horiz-adv-x="2043" d="M45 0l868 1434h236l850 -1434h-256l-184 319h-1094l-189 -319h-231zM575 504h877l-432 747zM829 1597v103q0 123 123 123h137q123 0 123 -123v-103q0 -123 -123 -122h-137q-123 0 -123 122zM911 1612q0 -55 56 -56h108q55 0 55 56v74q0 55 -55 55h-108q-55 0 -56 -55v-74 z" />
<glyph unicode="&#xc6;" horiz-adv-x="3121" d="M45 0l289 1434h2699v-185h-1317v-385h1305v-184h-1305v-496h1321v-184h-1546v319h-1161l-64 -319h-221zM367 504h1124v745h-973z" />
<glyph unicode="&#xc7;" horiz-adv-x="1906" d="M96 205v1024q0 205 205 205h1311q205 0 205 -205v-178h-205v96q0 102 -103 102h-1085q-102 0 -102 -102v-860q0 -102 102 -103h1085q102 0 103 103v96h205v-178q0 -205 -205 -205h-1311q-205 0 -205 205zM863 -303l36 262h144l-53 -262h-127z" />
<glyph unicode="&#xc8;" horiz-adv-x="1722" d="M102 0v1434h1532v-185h-1306v-385h1294v-184h-1294v-496h1310v-184h-1536zM526 1649v143l629 -104v-144z" />
<glyph unicode="&#xc9;" horiz-adv-x="1722" d="M102 0v1434h1532v-185h-1306v-385h1294v-184h-1294v-496h1310v-184h-1536zM565 1544v144l631 104v-143z" />
<glyph unicode="&#xca;" horiz-adv-x="1722" d="M102 0v1434h1532v-185h-1306v-385h1294v-184h-1294v-496h1310v-184h-1536zM469 1516l322 307h135l328 -307h-185l-204 198l-197 -198h-199z" />
<glyph unicode="&#xcb;" horiz-adv-x="1722" d="M102 0v1434h1532v-185h-1306v-385h1294v-184h-1294v-496h1310v-184h-1536zM563 1577v184h144v-184h-144zM1014 1577v184h143v-184h-143z" />
<glyph unicode="&#xcc;" horiz-adv-x="430" d="M-117 1649v143l629 -104v-144zM102 0v1434h226v-1434h-226z" />
<glyph unicode="&#xcd;" horiz-adv-x="430" d="M-78 1544v144l631 104v-143zM102 0v1434h226v-1434h-226z" />
<glyph unicode="&#xce;" horiz-adv-x="430" d="M-174 1516l322 307h135l328 -307h-185l-204 198l-197 -198h-199zM102 0v1434h226v-1434h-226z" />
<glyph unicode="&#xcf;" horiz-adv-x="430" d="M-80 1577v184h144v-184h-144zM102 0v1434h226v-1434h-226zM371 1577v184h143v-184h-143z" />
<glyph unicode="&#xd0;" horiz-adv-x="1961" d="M41 680v184h61v570h1457q307 0 307 -308v-819q0 -307 -307 -307h-1457v680h-61zM328 184h1190q123 0 122 123v819q0 123 -122 123h-1190v-385h932v-184h-932v-496z" />
<glyph unicode="&#xd1;" horiz-adv-x="1976" d="M102 0v1434h289l1258 -1188v1188h225v-1434h-309l-1258 1188v-1188h-205zM696 1587v154q29 16 62 27.5t76 11.5q49 0 85.5 -11.5t70.5 -25.5t72 -25.5t93 -11.5q41 0 72 14.5t53 36.5v-151q-31 -16 -64.5 -28.5t-72.5 -12.5q-45 0 -85 11t-79 25.5t-77 25.5t-79 11 q-39 0 -68.5 -14t-58.5 -37z" />
<glyph unicode="&#xd2;" d="M96 205v1024q0 205 205 205h1366q205 0 205 -205v-1024q0 -205 -205 -205h-1366q-205 0 -205 205zM322 287q0 -102 102 -103h1120q102 0 103 103v860q0 102 -103 102h-1120q-102 0 -102 -102v-860zM649 1649v143l629 -104v-144z" />
<glyph unicode="&#xd3;" d="M96 205v1024q0 205 205 205h1366q205 0 205 -205v-1024q0 -205 -205 -205h-1366q-205 0 -205 205zM322 287q0 -102 102 -103h1120q102 0 103 103v860q0 102 -103 102h-1120q-102 0 -102 -102v-860zM688 1544v144l631 104v-143z" />
<glyph unicode="&#xd4;" d="M96 205v1024q0 205 205 205h1366q205 0 205 -205v-1024q0 -205 -205 -205h-1366q-205 0 -205 205zM322 287q0 -102 102 -103h1120q102 0 103 103v860q0 102 -103 102h-1120q-102 0 -102 -102v-860zM591 1516l322 307h135l328 -307h-185l-204 198l-197 -198h-199z" />
<glyph unicode="&#xd5;" d="M96 205v1024q0 205 205 205h1366q205 0 205 -205v-1024q0 -205 -205 -205h-1366q-205 0 -205 205zM322 287q0 -102 102 -103h1120q102 0 103 103v860q0 102 -103 102h-1120q-102 0 -102 -102v-860zM692 1587v154q29 16 62 27.5t76 11.5q49 0 85.5 -11.5t70.5 -25.5 t72 -25.5t93 -11.5q41 0 72 14.5t53 36.5v-151q-31 -16 -64.5 -28.5t-72.5 -12.5q-45 0 -85 11t-79 25.5t-77 25.5t-79 11q-39 0 -68.5 -14t-58.5 -37z" />
<glyph unicode="&#xd6;" d="M96 205v1024q0 205 205 205h1366q205 0 205 -205v-1024q0 -205 -205 -205h-1366q-205 0 -205 205zM322 287q0 -102 102 -103h1120q102 0 103 103v860q0 102 -103 102h-1120q-102 0 -102 -102v-860zM686 1577v184h144v-184h-144zM1137 1577v184h143v-184h-143z" />
<glyph unicode="&#xd7;" horiz-adv-x="712" d="M102 580l154 151l-154 152l103 102l151 -154l152 154l102 -102l-153 -152l153 -151l-102 -103l-152 154l-151 -154z" />
<glyph unicode="&#xd8;" d="M96 205v1024q0 205 205 205h1071l43 61h154l-43 -61h141q205 0 205 -205v-1024q0 -205 -205 -205h-1112l-41 -61h-154l41 61h-100q-205 0 -205 205zM322 287q0 -102 102 -103h102l721 1065h-823q-102 0 -102 -102v-860zM680 184h864q102 0 103 103v860q0 102 -103 102 h-143z" />
<glyph unicode="&#xd9;" d="M102 205v1229h226v-1147q0 -102 102 -103h1118q102 0 103 103v1147h215v-1229q0 -205 -205 -205h-1354q-205 0 -205 205zM649 1649v143l629 -104v-144z" />
<glyph unicode="&#xda;" d="M102 205v1229h226v-1147q0 -102 102 -103h1118q102 0 103 103v1147h215v-1229q0 -205 -205 -205h-1354q-205 0 -205 205zM688 1544v144l631 104v-143z" />
<glyph unicode="&#xdb;" d="M102 205v1229h226v-1147q0 -102 102 -103h1118q102 0 103 103v1147h215v-1229q0 -205 -205 -205h-1354q-205 0 -205 205zM591 1516l322 307h135l328 -307h-185l-204 198l-197 -198h-199z" />
<glyph unicode="&#xdc;" d="M102 205v1229h226v-1147q0 -102 102 -103h1118q102 0 103 103v1147h215v-1229q0 -205 -205 -205h-1354q-205 0 -205 205zM686 1577v184h144v-184h-144zM1137 1577v184h143v-184h-143z" />
<glyph unicode="&#xdd;" horiz-adv-x="2060" d="M45 1434h342l653 -572l658 572h317l-874 -781v-653h-226v653zM735 1544v144l631 104v-143z" />
<glyph unicode="&#xde;" horiz-adv-x="1906" d="M102 0v1434h226v-256h1220q287 0 287 -287v-311q0 -287 -287 -287h-1220v-293h-226zM328 477h1159q123 0 123 123v270q0 123 -123 123h-1159v-516z" />
<glyph unicode="&#xdf;" horiz-adv-x="1452" d="M92 0v1331q0 164 184 164h529q178 0 178 -178v-334q0 -61 61 -61h179q143 0 143 -144v-614q0 -164 -164 -164h-696v164h614q61 0 62 61v471q0 61 -62 62h-178q-143 0 -143 143v348q0 82 -76 82h-369q-78 0 -78 -82v-1249h-184z" />
<glyph unicode="&#xe0;" horiz-adv-x="1447" d="M84 184v209q0 178 164 178h923v138q0 49 -61 49h-768q-61 0 -61 -49v-33h-185v69q0 176 185 177h890q184 0 185 -177v-712l-182 -33h-906q-184 0 -184 184zM268 225q0 -61 62 -61h782l59 12v232h-841q-61 0 -62 -66v-117zM389 1137v143l629 -104v-144z" />
<glyph unicode="&#xe1;" horiz-adv-x="1447" d="M84 184v209q0 178 164 178h923v138q0 49 -61 49h-768q-61 0 -61 -49v-33h-185v69q0 176 185 177h890q184 0 185 -177v-712l-182 -33h-906q-184 0 -184 184zM268 225q0 -61 62 -61h782l59 12v232h-841q-61 0 -62 -66v-117zM428 1032v144l631 104v-143z" />
<glyph unicode="&#xe2;" horiz-adv-x="1447" d="M84 184v209q0 178 164 178h923v138q0 49 -61 49h-768q-61 0 -61 -49v-33h-185v69q0 176 185 177h890q184 0 185 -177v-712l-182 -33h-906q-184 0 -184 184zM268 225q0 -61 62 -61h782l59 12v232h-841q-61 0 -62 -66v-117zM331 1004l322 307h135l328 -307h-185l-204 198 l-197 -198h-199z" />
<glyph unicode="&#xe3;" horiz-adv-x="1447" d="M84 184v209q0 178 164 178h923v138q0 49 -61 49h-768q-61 0 -61 -49v-33h-185v69q0 176 185 177h890q184 0 185 -177v-712l-182 -33h-906q-184 0 -184 184zM268 225q0 -61 62 -61h782l59 12v232h-841q-61 0 -62 -66v-117zM432 1075v154q29 16 62 27.5t76 11.5 q49 0 85.5 -11.5t70.5 -25.5t72 -25.5t93 -11.5q41 0 72 14.5t53 36.5v-151q-31 -16 -64.5 -28.5t-72.5 -12.5q-45 0 -85 11t-79 25.5t-77 25.5t-79 11q-39 0 -68.5 -14t-58.5 -37z" />
<glyph unicode="&#xe4;" horiz-adv-x="1447" d="M84 184v209q0 178 164 178h923v138q0 49 -61 49h-768q-61 0 -61 -49v-33h-185v69q0 176 185 177h890q184 0 185 -177v-712l-182 -33h-906q-184 0 -184 184zM268 225q0 -61 62 -61h782l59 12v232h-841q-61 0 -62 -66v-117zM426 1065v184h144v-184h-144zM877 1065v184h143 v-184h-143z" />
<glyph unicode="&#xe5;" horiz-adv-x="1447" d="M84 184v209q0 178 164 178h923v138q0 49 -61 49h-768q-61 0 -61 -49v-33h-185v69q0 176 185 177h890q184 0 185 -177v-712l-182 -33h-906q-184 0 -184 184zM268 225q0 -61 62 -61h782l59 12v232h-841q-61 0 -62 -66v-117zM532 1085v103q0 123 123 123h137q123 0 123 -123 v-103q0 -123 -123 -122h-137q-123 0 -123 122zM614 1100q0 -55 56 -56h108q55 0 55 56v74q0 55 -55 55h-108q-55 0 -56 -55v-74z" />
<glyph unicode="&#xe6;" horiz-adv-x="2490" d="M84 164v250q0 158 164 157h903v129q-2 57 -61 58h-748q-61 0 -61 -62v-20h-185v102q0 143 164 144h1981q164 0 163 -144v-368h-1069v-185q0 -61 62 -61h766q61 0 61 61v21h184v-82q0 -164 -163 -164h-899q-111 0 -136 41l-141 -41h-821q-164 0 -164 164zM268 225 q0 -61 62 -61h762l59 12v232h-821q-61 0 -62 -66v-117zM1335 573h885v123q0 61 -61 62h-762q-61 0 -62 -62v-123z" />
<glyph unicode="&#xe7;" horiz-adv-x="1447" d="M92 164v594q0 164 164 164h944q164 0 164 -164v-82h-164v20q0 61 -61 62h-801q-61 0 -62 -62v-471q0 -61 62 -61h801q61 0 61 61v19h164v-80q0 -164 -164 -164h-944q-164 0 -164 164zM633 -303l36 262h144l-53 -262h-127z" />
<glyph unicode="&#xe8;" horiz-adv-x="1404" d="M92 164v594q0 164 164 164h899q164 0 164 -164v-348h-1043v-185q0 -61 62 -61h739q61 0 62 61v21h184v-82q0 -164 -164 -164h-903q-164 0 -164 164zM276 573h859v123q0 61 -62 62h-735q-61 0 -62 -62v-123zM367 1137v143l629 -104v-144z" />
<glyph unicode="&#xe9;" horiz-adv-x="1404" d="M92 164v594q0 164 164 164h899q164 0 164 -164v-348h-1043v-185q0 -61 62 -61h739q61 0 62 61v21h184v-82q0 -164 -164 -164h-903q-164 0 -164 164zM276 573h859v123q0 61 -62 62h-735q-61 0 -62 -62v-123zM408 1032v144l631 104v-143z" />
<glyph unicode="&#xea;" horiz-adv-x="1404" d="M92 164v594q0 164 164 164h899q164 0 164 -164v-348h-1043v-185q0 -61 62 -61h739q61 0 62 61v21h184v-82q0 -164 -164 -164h-903q-164 0 -164 164zM276 573h859v123q0 61 -62 62h-735q-61 0 -62 -62v-123zM309 1004l322 307h135l328 -307h-185l-204 198l-197 -198h-199z " />
<glyph unicode="&#xeb;" horiz-adv-x="1404" d="M92 164v594q0 164 164 164h899q164 0 164 -164v-348h-1043v-185q0 -61 62 -61h739q61 0 62 61v21h184v-82q0 -164 -164 -164h-903q-164 0 -164 164zM276 573h859v123q0 61 -62 62h-735q-61 0 -62 -62v-123zM405 1065v184h144v-184h-144zM856 1065v184h143v-184h-143z" />
<glyph unicode="&#xec;" horiz-adv-x="368" d="M-147 1137v143l629 -104v-144zM92 0v922h184v-922h-184z" />
<glyph unicode="&#xed;" horiz-adv-x="368" d="M-108 1032v144l631 104v-143zM92 0v922h184v-922h-184z" />
<glyph unicode="&#xee;" horiz-adv-x="368" d="M-205 1004l322 307h135l328 -307h-185l-204 198l-197 -198h-199zM92 0v922h184v-922h-184z" />
<glyph unicode="&#xef;" horiz-adv-x="368" d="M-111 1065v184h144v-184h-144zM92 0v922h184v-922h-184zM340 1065v184h143v-184h-143z" />
<glyph unicode="&#xf0;" horiz-adv-x="1454" d="M86 205v512q0 205 225 205h807l60 -21v100l-103 275l-287 -55v108l248 47l-43 119h189l30 -84l211 41v-106l-172 -35l111 -295v-811q0 -205 -164 -205h-887q-225 0 -225 205zM270 246q0 -82 103 -82h723q82 0 82 82v491l-58 21h-747q-102 0 -103 -82v-430z" />
<glyph unicode="&#xf1;" horiz-adv-x="1452" d="M92 0v868l178 54h930q164 0 164 -164v-758h-184v696q0 61 -62 62h-780l-62 -19v-739h-184zM434 1075v154q29 16 62 27.5t76 11.5q49 0 85.5 -11.5t70.5 -25.5t72 -25.5t93 -11.5q41 0 72 14.5t53 36.5v-151q-31 -16 -64.5 -28.5t-72.5 -12.5q-45 0 -85 11t-79 25.5 t-77 25.5t-79 11q-39 0 -68.5 -14t-58.5 -37z" />
<glyph unicode="&#xf2;" horiz-adv-x="1452" d="M86 164v594q0 164 164 164h952q164 0 164 -164v-594q0 -164 -164 -164h-952q-164 0 -164 164zM270 225q0 -61 62 -61h788q61 0 62 61v471q0 61 -62 62h-788q-61 0 -62 -62v-471zM391 1137v143l629 -104v-144z" />
<glyph unicode="&#xf3;" horiz-adv-x="1452" d="M86 164v594q0 164 164 164h952q164 0 164 -164v-594q0 -164 -164 -164h-952q-164 0 -164 164zM270 225q0 -61 62 -61h788q61 0 62 61v471q0 61 -62 62h-788q-61 0 -62 -62v-471zM430 1032v144l631 104v-143z" />
<glyph unicode="&#xf4;" horiz-adv-x="1452" d="M86 164v594q0 164 164 164h952q164 0 164 -164v-594q0 -164 -164 -164h-952q-164 0 -164 164zM270 225q0 -61 62 -61h788q61 0 62 61v471q0 61 -62 62h-788q-61 0 -62 -62v-471zM333 1004l322 307h135l328 -307h-185l-204 198l-197 -198h-199z" />
<glyph unicode="&#xf5;" horiz-adv-x="1452" d="M86 164v594q0 164 164 164h952q164 0 164 -164v-594q0 -164 -164 -164h-952q-164 0 -164 164zM270 225q0 -61 62 -61h788q61 0 62 61v471q0 61 -62 62h-788q-61 0 -62 -62v-471zM434 1075v154q29 16 62 27.5t76 11.5q49 0 85.5 -11.5t70.5 -25.5t72 -25.5t93 -11.5 q41 0 72 14.5t53 36.5v-151q-31 -16 -64.5 -28.5t-72.5 -12.5q-45 0 -85 11t-79 25.5t-77 25.5t-79 11q-39 0 -68.5 -14t-58.5 -37z" />
<glyph unicode="&#xf6;" horiz-adv-x="1452" d="M86 164v594q0 164 164 164h952q164 0 164 -164v-594q0 -164 -164 -164h-952q-164 0 -164 164zM270 225q0 -61 62 -61h788q61 0 62 61v471q0 61 -62 62h-788q-61 0 -62 -62v-471zM428 1065v184h144v-184h-144zM879 1065v184h143v-184h-143z" />
<glyph unicode="&#xf7;" horiz-adv-x="778" d="M102 659v144h574v-144h-574zM317 285v184h144v-184h-144zM317 981v184h144v-184h-144z" />
<glyph unicode="&#xf8;" horiz-adv-x="1452" d="M86 164v594q0 164 164 164h637l35 61h149l-35 -61h166q164 0 164 -164v-594q0 -164 -164 -164h-684l-35 -61h-151l35 61h-117q-164 0 -164 164zM270 225q0 -61 62 -61h127l336 594h-463q-61 0 -62 -62v-471zM610 164h510q61 0 62 61v471q0 61 -62 62h-176z" />
<glyph unicode="&#xf9;" horiz-adv-x="1413" d="M86 164v758h184v-697q0 -61 62 -61h753l62 18v740h174v-869l-178 -53h-893q-164 0 -164 164zM371 1137v143l629 -104v-144z" />
<glyph unicode="&#xfa;" horiz-adv-x="1413" d="M86 164v758h184v-697q0 -61 62 -61h753l62 18v740h174v-869l-178 -53h-893q-164 0 -164 164zM412 1032v144l631 104v-143z" />
<glyph unicode="&#xfb;" horiz-adv-x="1413" d="M86 164v758h184v-697q0 -61 62 -61h753l62 18v740h174v-869l-178 -53h-893q-164 0 -164 164zM313 1004l322 307h135l328 -307h-185l-204 198l-197 -198h-199z" />
<glyph unicode="&#xfc;" horiz-adv-x="1413" d="M86 164v758h184v-697q0 -61 62 -61h753l62 18v740h174v-869l-178 -53h-893q-164 0 -164 164zM409 1065v184h144v-184h-144zM860 1065v184h143v-184h-143z" />
<glyph unicode="&#xfd;" horiz-adv-x="1589" d="M8 -348h352q109 0 160 76l207 311l-627 883h236l518 -758l485 758h211l-858 -1297q-92 -137 -301 -137h-383v164zM500 1032v144l631 104v-143z" />
<glyph unicode="&#xfe;" horiz-adv-x="1458" d="M92 -512v2007h184v-594l72 21h813q205 0 205 -205v-512q0 -205 -205 -205h-813l-72 14v-526h-184zM276 176l62 -12h762q82 0 82 82v430q0 82 -82 82h-762l-62 -19v-563z" />
<glyph unicode="&#xff;" horiz-adv-x="1589" d="M8 -348h352q109 0 160 76l207 311l-627 883h236l518 -758l485 758h211l-858 -1297q-92 -137 -301 -137h-383v164zM497 1065v184h144v-184h-144zM948 1065v184h143v-184h-143z" />
<glyph unicode="&#x152;" horiz-adv-x="3293" d="M96 205v1024q0 205 205 205h2904v-185h-1307v-385h1295v-184h-1295v-496h1311v-184h-2908q-205 0 -205 205zM322 287q0 -102 102 -103h1147q102 0 102 103v860q0 102 -102 102h-1147q-102 0 -102 -102v-860z" />
<glyph unicode="&#x153;" horiz-adv-x="2482" d="M86 164v594q0 164 164 164h1982q164 0 164 -164v-348h-1044v-185q0 -61 61 -61h741q61 0 62 61v21h184v-82q0 -164 -164 -164h-1986q-164 0 -164 164zM270 225q0 -61 62 -61h774q61 0 61 61v471q0 61 -61 62h-774q-61 0 -62 -62v-471zM1352 573h860v123q0 61 -62 62h-737 q-61 0 -61 -62v-123z" />
<glyph unicode="&#x178;" horiz-adv-x="2060" d="M45 1434h342l653 -572l658 572h317l-874 -781v-653h-226v653zM733 1577v184h144v-184h-144zM1184 1577v184h143v-184h-143z" />
<glyph unicode="&#x2c6;" horiz-adv-x="989" d="M102 1004l322 307h135l328 -307h-185l-204 198l-197 -198h-199z" />
<glyph unicode="&#x2dc;" horiz-adv-x="788" d="M102 1075v154q29 16 62 27.5t76 11.5q49 0 85.5 -11.5t70.5 -25.5t72 -25.5t93 -11.5q41 0 72 14.5t53 36.5v-151q-31 -16 -64.5 -28.5t-72.5 -12.5q-45 0 -85 11t-79 25.5t-77 25.5t-79 11q-39 0 -68.5 -14t-58.5 -37z" />
<glyph unicode="&#x2000;" horiz-adv-x="911" />
<glyph unicode="&#x2001;" horiz-adv-x="1823" />
<glyph unicode="&#x2002;" horiz-adv-x="911" />
<glyph unicode="&#x2003;" horiz-adv-x="1823" />
<glyph unicode="&#x2004;" horiz-adv-x="607" />
<glyph unicode="&#x2005;" horiz-adv-x="455" />
<glyph unicode="&#x2006;" horiz-adv-x="303" />
<glyph unicode="&#x2007;" horiz-adv-x="303" />
<glyph unicode="&#x2008;" horiz-adv-x="227" />
<glyph unicode="&#x2009;" horiz-adv-x="364" />
<glyph unicode="&#x200a;" horiz-adv-x="101" />
<glyph unicode="&#x2010;" horiz-adv-x="733" d="M59 461v143h615v-143h-615z" />
<glyph unicode="&#x2011;" horiz-adv-x="733" d="M59 461v143h615v-143h-615z" />
<glyph unicode="&#x2012;" horiz-adv-x="733" d="M59 461v143h615v-143h-615z" />
<glyph unicode="&#x2013;" horiz-adv-x="1832" d="M59 461v143h1715v-143h-1715z" />
<glyph unicode="&#x2014;" horiz-adv-x="2822" d="M59 461v143h2704v-143h-2704z" />
<glyph unicode="&#x2018;" horiz-adv-x="290" d="M74 1352v143h143v-154l37 -235h-127z" />
<glyph unicode="&#x2019;" horiz-adv-x="290" d="M37 1106l37 235v154h143v-143l-53 -246h-127z" />
<glyph unicode="&#x201a;" horiz-adv-x="290" d="M37 -205l37 236v153h143v-143l-53 -246h-127z" />
<glyph unicode="&#x201c;" horiz-adv-x="557" d="M74 1352v143h143v-154l37 -235h-127zM340 1352v143h143v-154l37 -235h-127z" />
<glyph unicode="&#x201d;" horiz-adv-x="557" d="M37 1106l37 235v154h143v-143l-53 -246h-127zM303 1106l37 235v154h143v-143l-53 -246h-127z" />
<glyph unicode="&#x201e;" horiz-adv-x="557" d="M37 -205l37 236v153h143v-143l-53 -246h-127zM303 -205l37 236v153h143v-143l-53 -246h-127z" />
<glyph unicode="&#x2022;" horiz-adv-x="628" d="M102 616v226q0 123 123 123h178q123 0 123 -123v-226q0 -123 -123 -122h-178q-123 0 -123 122z" />
<glyph unicode="&#x2026;" horiz-adv-x="1392" d="M154 0v184h143v-184h-143zM625 0v184h143v-184h-143zM1096 0v184h143v-184h-143z" />
<glyph unicode="&#x202f;" horiz-adv-x="364" />
<glyph unicode="&#x2039;" horiz-adv-x="583" d="M59 559l314 250h151l-321 -250l321 -250h-151z" />
<glyph unicode="&#x203a;" horiz-adv-x="583" d="M59 309l322 250l-322 250h152l313 -250l-313 -250h-152z" />
<glyph unicode="&#x205f;" horiz-adv-x="455" />
<glyph unicode="&#x20ac;" horiz-adv-x="1753" d="M27 537l10 143h59v102h-69l10 144h59v241q0 205 205 205h1368l-131 -164h-1176q-82 0 -81 -82v-200h1030l-117 -144h-913v-102h831l-115 -143h-716v-291q0 -82 81 -82h1276v-164h-1337q-205 0 -205 205v332h-69z" />
<glyph unicode="&#x2122;" horiz-adv-x="1097" d="M80 1331v103h348v-103h-123v-510h-102v510h-123zM508 821v613h131l115 -504l116 504h131v-613h-77v475l-111 -475h-119l-108 459v-459h-78z" />
<glyph unicode="&#x25fc;" horiz-adv-x="921" d="M0 0v922h922v-922h-922z" />
</font>
</defs>
</svg>
